# xmcd CD database file
#
# Track frame offsets:
#	150
#	14889
#	42779
#	70371
#	84889
#	102063
#	125569
#	160575
#	175068
#	198181
#	217288
#	247060
#	271869
#
# Disc length: 4173 seconds
#
# Revision: 0
# Processed by: cddbd v1.5.2PL0 Copyright (c) Steve Scherf et al.
# Submitted via: CDex 1.70beta2
#
DISCID=b3104b0d
DTITLE=Various Artist - Saxophone Jazz
DYEAR=2000
DGENRE=Jazz
TTITLE0=Stan Getz - I've Got You Under My Skin
TTITLE1=Dexter Gordon - Fried Bananas
TTITLE2=Coleman Hawkins - Poor Butterfly
TTITLE3=Gerry Mulligan - Funhouse
TTITLE4=Ben Webster and Joe Zawinul - Like Someone In Love
TTITLE5=Sonny Criss - Blues In The Closet
TTITLE6=John Coltrane - Time After Time
TTITLE7=Art Pepper - Opus De Funk
TTITLE8=Cannonball Adderley - Toy
TTITLE9=Gene Ammons - My Romance
TTITLE10=Illinois Jacquet - I Wish I Knew How It Feel To Be Free
TTITLE11=Houston Person - Jamilah
TTITLE12=Sonny Rollins - Island Lady
EXTD=YEAR: 2000
EXTT0=
EXTT1=
EXTT2=
EXTT3=
EXTT4=
EXTT5=
EXTT6=
EXTT7=
EXTT8=
EXTT9=
EXTT10=
EXTT11=
EXTT12=
PLAYORDER=
